<svg width="30" height="30" fill="none" xmlns="http://www.w3.org/2000/svg"><path d="M12.424 17.576c-2.864-2.863-3.51-5.726-3.656-6.873-.04-.318.068-.636.295-.861l2.317-2.316c.341-.34.402-.872.146-1.28L7.837.517A1.034 1.034 0 006.497.14L.574 2.93c-.385.19-.612.6-.569 1.027.31 2.948 1.596 10.195 8.718 17.318 7.122 7.123 14.368 8.407 17.318 8.718.428.043.837-.184 1.027-.57l2.79-5.922a1.035 1.035 0 00-.375-1.338l-5.729-3.688a1.034 1.034 0 00-1.28.145l-2.316 2.317a1.028 1.028 0 01-.86.295c-1.148-.146-4.011-.792-6.874-3.656z" fill="#FFBF00"/><path d="M23.794 16.034a1.034 1.034 0 01-1.035-1.035 7.767 7.767 0 00-7.758-7.758 1.034 1.034 0 110-2.069c5.425.006 9.82 4.402 9.827 9.827 0 .571-.463 1.034-1.034 1.034z" fill="#FFBF00"/><path d="M28.966 16.034a1.034 1.034 0 01-1.035-1.035c-.008-7.138-5.792-12.922-12.93-12.93A1.034 1.034 0 1115 0C23.28.01 29.99 6.72 30 15a1.034 1.034 0 01-1.034 1.034z" fill="#FFBF00"/></svg>